<?xml version="1.0" encoding="utf-8"?>
<!-- Generator: Adobe Illustrator 25.0.0, SVG Export Plug-In . SVG Version: 6.00 Build 0)  -->
<svg version="1.1" id="Capa_1" xmlns="http://www.w3.org/2000/svg" xmlns:xlink="http://www.w3.org/1999/xlink" x="0px" y="0px"
	 viewBox="0 0 512 450" style="enable-background:new 0 0 512 450;" xml:space="preserve">
<style type="text/css">
	.st0{opacity:5.000000e-02;}
	.st1{fill:#9D65C9;}
</style>
<g class="st0">
	<g>
		<g>
			<path class="st1" d="M346,330h60c8.3,0,15-6.7,15-15s-6.7-15-15-15h-60c-8.3,0-15,6.7-15,15S337.7,330,346,330z M226,270h60
				c8.3,0,15-6.7,15-15s-6.7-15-15-15h-60c-8.3,0-15,6.7-15,15C211,263.3,217.7,270,226,270z M346,390h60c8.3,0,15-6.7,15-15
				s-6.7-15-15-15h-60c-8.3,0-15,6.7-15,15S337.7,390,346,390z M346,270h60c8.3,0,15-6.7,15-15s-6.7-15-15-15h-60
				c-8.3,0-15,6.7-15,15C331,263.3,337.7,270,346,270z M497,180H271v-15c0-41.4-33.6-75-75-75H75c-24.8,0-45-20.2-45-45V15
				c0-8.3-6.7-15-15-15S0,6.7,0,15v30c0,41.4,33.6,75,75,75h121c24.8,0,45,20.2,45,45v15H15c-8.3,0-15,6.7-15,15v240
				c0,8.3,6.7,15,15,15h482c8.3,0,15-6.7,15-15V195C512,186.7,505.3,180,497,180z M482,420H30V210h452V420z M106,330h60
				c8.3,0,15-6.7,15-15s-6.7-15-15-15h-60c-8.3,0-15,6.7-15,15S97.7,330,106,330z M226,330h60c8.3,0,15-6.7,15-15s-6.7-15-15-15h-60
				c-8.3,0-15,6.7-15,15S217.7,330,226,330z M106,390h180c8.3,0,15-6.7,15-15s-6.7-15-15-15H106c-8.3,0-15,6.7-15,15
				S97.7,390,106,390z M106,270h60c8.3,0,15-6.7,15-15s-6.7-15-15-15h-60c-8.3,0-15,6.7-15,15C91,263.3,97.7,270,106,270z"/>
		</g>
	</g>
</g>
</svg>
